Coordinates
version=1
nRows=29
nColumns=38
inDegrees=no

Units are S.I. units (second, meters, Newtons, ...)
If the header above contains a line with 'inDegrees', this indicates whether rotational values are in degrees (yes) or radians (no).

endheader
time	pelvis_tilt	pelvis_list	pelvis_rotation	pelvis_tx	pelvis_ty	pelvis_tz	hip_flexion_r	hip_adduction_r	hip_rotation_r	knee_angle_r	ankle_angle_r	subtalar_angle_r	mtp_angle_r	hip_flexion_l	hip_adduction_l	hip_rotation_l	knee_angle_l	ankle_angle_l	subtalar_angle_l	mtp_angle_l	lumbar_extension	lumbar_bending	lumbar_rotation	arm_flex_r	arm_add_r	arm_rot_r	elbow_flex_r	pro_sup_r	wrist_flex_r	wrist_dev_r	arm_flex_l	arm_add_l	arm_rot_l	elbow_flex_l	pro_sup_l	wrist_flex_l	wrist_dev_l
3.37	0.0367583	-0.0834083	-0.00204056	1.30491	1.03988	-0.46006	0.117258	0.13765	-0.0171142	0.306929	0.149365	-0.0381917	-4.25968e-11	0.255567	-0.219433	-0.0202543	1.19714	0.00277688	0.0302021	-4.87732e-12	-0.248867	0.0787813	-0.0129923	-0.261812	-0.191855	-0.285234	1.00184	1.48747	-7.4289e-12	9.37641e-12	-0.0359685	-0.110274	-0.080509	0.776569	1.48204	-2.93114e-12	7.53552e-12
3.375	0.0340672	-0.0816837	-0.00461244	1.31018	1.04045	-0.459502	0.111982	0.13665	-0.0139343	0.301775	0.150069	-0.0366469	-4.25968e-11	0.273276	-0.218154	-0.0218134	1.19737	0.0110234	0.0294759	-4.87732e-12	-0.247515	0.0749908	-0.00700638	-0.261926	-0.194063	-0.285122	1.01095	1.48723	-7.4289e-12	9.37641e-12	-0.0370442	-0.110095	-0.0814733	0.772555	1.48249	-2.93114e-12	7.53552e-12
3.38	0.031488	-0.0800369	-0.00725357	1.31545	1.041	-0.458954	0.106522	0.135724	-0.0105569	0.296483	0.150691	-0.0352014	-8.18544e-12	0.290399	-0.217046	-0.0238763	1.19628	0.0189219	0.0287327	9.81799e-12	-0.246278	0.0713011	-0.000972559	-0.261966	-0.196347	-0.285025	1.02012	1.48696	-6.14257e-12	2.91125e-12	-0.0383294	-0.109933	-0.0828452	0.768918	1.48299	-1.22586e-12	2.27658e-12
3.385	0.0290477	-0.0784724	-0.00993023	1.3207	1.04154	-0.45842	0.100848	0.134866	-0.00700446	0.29106	0.151242	-0.0338467	-8.18544e-12	0.306899	-0.216103	-0.0263884	1.19391	0.02649	0.0279686	9.81799e-12	-0.245183	0.0677269	0.00506244	-0.261912	-0.198712	-0.284928	1.02935	1.48666	-6.14257e-12	2.91125e-12	-0.0398253	-0.109785	-0.0846263	0.765647	1.48354	-1.22586e-12	2.27658e-12
3.39	0.0267676	-0.0769915	-0.0126122	1.32595	1.04204	-0.457902	0.0949347	0.134067	-0.0032984	0.285513	0.151734	-0.032575	-8.18544e-12	0.322747	-0.21531	-0.0292999	1.19027	0.0337431	0.0271798	9.81799e-12	-0.244251	0.064279	0.0110547	-0.261743	-0.201163	-0.284816	1.03862	1.48632	-6.14257e-12	2.91125e-12	-0.041529	-0.109648	-0.0868107	0.762723	1.48409	-1.22586e-12	2.27658e-12
3.395	0.0246642	-0.0755928	-0.0152722	1.3312	1.04253	-0.457405	0.0887668	0.133315	0.000540234	0.279849	0.152179	-0.0313794	-8.18544e-12	0.337918	-0.214647	-0.0325652	1.1854	0.0406936	0.0263622	9.81799e-12	-0.243501	0.0609643	0.0169633	-0.261436	-0.203703	-0.284674	1.04794	1.48593	-6.14257e-12	2.91125e-12	-0.0434348	-0.109519	-0.0893879	0.760127	1.48463	-1.22586e-12	2.27658e-12
3.4	0.0227486	-0.074272	-0.0178855	1.33644	1.04299	-0.45693	0.082333	0.132597	0.00449128	0.274076	0.152591	-0.0302546	-8.18544e-12	0.352395	-0.21409	-0.0361431	1.1793	0.04735	0.0255126	9.81799e-12	-0.242948	0.0577869	0.0227506	-0.260973	-0.206335	-0.284488	1.05728	1.48548	-6.14257e-12	2.91125e-12	-0.0455335	-0.109395	-0.0923403	0.757832	1.48514	-1.22586e-12	2.27658e-12
3.405	0.0210273	-0.0730235	-0.0204294	1.34169	1.04343	-0.456482	0.075628	0.1319	0.00853543	0.268201	0.152981	-0.0291974	-8.18544e-12	0.366166	-0.213615	-0.0399953	1.172	0.0537166	0.0246285	9.81799e-12	-0.2426	0.0547484	0.0283821	-0.260333	-0.209064	-0.284242	1.06664	1.48496	-6.14257e-12	2.91125e-12	-0.0478139	-0.109272	-0.0956447	0.75581	1.48558	-1.22586e-12	2.27658e-12
3.41	0.0195031	-0.0718404	-0.0228832	1.34693	1.04383	-0.456063	0.06865	0.131209	0.0126536	0.262229	0.153358	-0.0282054	-8.18544e-12	0.379224	-0.213192	-0.0440861	1.16351	0.0597935	0.0237078	9.81799e-12	-0.242462	0.051849	0.0338265	-0.259497	-0.21189	-0.283924	1.076	1.48437	-6.14257e-12	2.91125e-12	-0.0502622	-0.109149	-0.0992749	0.754031	1.48594	-1.22586e-12	2.27658e-12
3.415	0.0181759	-0.070716	-0.0252281	1.35217	1.04421	-0.455675	0.0614002	0.130512	0.0168271	0.256163	0.15373	-0.027277	-8.18544e-12	0.391563	-0.212793	-0.0483813	1.15385	0.0655769	0.0227496	9.81799e-12	-0.242539	0.049088	0.0390558	-0.258449	-0.214816	-0.283523	1.08534	1.48371	-6.14257e-12	2.91125e-12	-0.0528636	-0.109023	-0.103201	0.75246	1.48619	-1.22586e-12	2.27658e-12
3.42	0.017043	-0.0696449	-0.0274472	1.35741	1.04456	-0.455322	0.053883	0.129799	0.0210373	0.250008	0.154102	-0.0264103	-8.18544e-12	0.403183	-0.212389	-0.0528475	1.14302	0.0710598	0.0217538	9.81799e-12	-0.242829	0.0464651	0.0440453	-0.257174	-0.217841	-0.283029	1.09465	1.48302	-6.14257e-12	2.91125e-12	-0.0556021	-0.108892	-0.107393	0.751063	1.48635	-1.22586e-12	2.27658e-12
3.425	0.0160987	-0.0686233	-0.0295265	1.36265	1.04487	-0.455004	0.0461055	0.129063	0.0252658	0.243764	0.154478	-0.0256027	-8.18544e-12	0.414083	-0.211954	-0.0574521	1.13105	0.076232	0.020721	9.81799e-12	-0.243328	0.043981	0.0487745	-0.255656	-0.220967	-0.282434	1.1039	1.4823	-6.14257e-12	2.91125e-12	-0.0584613	-0.108753	-0.111813	0.749807	1.48641	-1.22586e-12	2.27658e-12
3.43	0.0153349	-0.0676499	-0.0314551	1.36789	1.04515	-0.454723	0.0380779	0.128299	0.0294948	0.237433	0.154857	-0.0248506	-8.18544e-12	0.424265	-0.211462	-0.062163	1.11791	0.0810804	0.0196526	9.81799e-12	-0.244028	0.0416375	0.0532273	-0.253887	-0.224191	-0.281731	1.11308	1.48156	-6.14257e-12	2.91125e-12	-0.0614251	-0.108604	-0.116423	0.748659	1.48636	-1.22586e-12	2.27658e-12
3.435	0.0147408	-0.0667259	-0.0332254	1.37313	1.04539	-0.454481	0.0298132	0.127508	0.0337075	0.231019	0.155236	-0.0241496	-8.18544e-12	0.43373	-0.210893	-0.0669492	1.10363	0.0855897	0.0185507	9.81799e-12	-0.244921	0.0394386	0.0573923	-0.251856	-0.227513	-0.280912	1.12217	1.48083	-6.14257e-12	2.91125e-12	-0.0644782	-0.108446	-0.121183	0.747587	1.48621	-1.22586e-12	2.27658e-12
3.44	0.0143027	-0.0658547	-0.0348331	1.37837	1.0456	-0.454277	0.0213275	0.126691	0.0378871	0.224522	0.155612	-0.0234933	-8.18544e-12	0.442483	-0.210227	-0.0717799	1.0882	0.089741	0.0174174	9.81799e-12	-0.24599	0.0373899	0.061263	-0.24956	-0.230931	-0.279971	1.13115	1.48011	-6.14257e-12	2.91125e-12	-0.0676063	-0.108274	-0.126052	0.746561	1.48596	-1.22586e-12	2.27658e-12
3.445	0.0140043	-0.0650422	-0.0362767	1.38361	1.04576	-0.454113	0.0126395	0.125855	0.0420171	0.217945	0.155978	-0.0228736	-8.18544e-12	0.450525	-0.20945	-0.0766247	1.0716	0.0935119	0.0162543	9.81799e-12	-0.247219	0.0354993	0.0648368	-0.246994	-0.234444	-0.278902	1.14	1.47939	-6.14257e-12	2.91125e-12	-0.0707969	-0.10809	-0.130985	0.745557	1.48561	-1.22586e-12	2.27658e-12
3.45	0.0138272	-0.0642959	-0.0375575	1.38886	1.04589	-0.453989	0.00377011	0.12501	0.0460808	0.211291	0.156327	-0.0222806	-8.18544e-12	0.45786	-0.208551	-0.0814537	1.05383	0.0968756	0.015062	9.81799e-12	-0.248588	0.0337763	0.0681153	-0.24416	-0.238049	-0.2777	1.14871	1.47867	-6.14257e-12	2.91125e-12	-0.074039	-0.107891	-0.13594	0.74455	1.48515	-1.22586e-12	2.27658e-12
3.455	0.0137501	-0.0636253	-0.0386784	1.39412	1.04597	-0.453903	-0.00525698	0.124167	0.050062	0.204562	0.156652	-0.0217027	-8.18544e-12	0.464492	-0.207518	-0.0862368	1.03486	0.0998005	0.0138397	9.81799e-12	-0.250072	0.0322317	0.0711034	-0.241059	-0.241747	-0.276361	1.15725	1.47796	-6.14257e-12	2.91125e-12	-0.0773236	-0.107675	-0.140873	0.743522	1.4846	-1.22586e-12	2.27658e-12
3.46	0.0137499	-0.0630406	-0.0396438	1.39938	1.04601	-0.453857	-0.0144155	0.123339	0.0539449	0.197763	0.156943	-0.0211272	-8.18544e-12	0.470426	-0.206346	-0.0909436	1.01469	0.102251	0.0125854	9.81799e-12	-0.251646	0.0308773	0.0738088	-0.237699	-0.245533	-0.27488	1.16562	1.47725	-6.14257e-12	2.91125e-12	-0.0806434	-0.107441	-0.145742	0.742457	1.48395	-1.22586e-12	2.27658e-12
3.465	0.0138028	-0.0625521	-0.0404599	1.40464	1.04601	-0.453849	-0.0236788	0.122539	0.0577151	0.190897	0.157193	-0.0205406	-8.18544e-12	0.475669	-0.205028	-0.0955432	0.993294	0.104188	0.0112948	9.81799e-12	-0.253282	0.0297242	0.0762418	-0.234085	-0.249407	-0.273255	1.17379	1.47653	-6.14257e-12	2.91125e-12	-0.0839925	-0.107187	-0.15051	0.741342	1.48322	-1.22586e-12	2.27658e-12
3.47	0.0138858	-0.0621697	-0.0411337	1.40992	1.04596	-0.453878	-0.0330199	0.121781	0.0613607	0.18397	0.157395	-0.0199296	-8.18544e-12	0.480226	-0.203561	-0.100004	0.97065	0.105572	0.00996243	9.81799e-12	-0.254954	0.0287826	0.0784149	-0.230227	-0.253365	-0.271483	1.18176	1.47582	-6.14257e-12	2.91125e-12	-0.0873658	-0.10691	-0.155139	0.740168	1.48242	-1.22586e-12	2.27658e-12
3.475	0.013978	-0.0619015	-0.0416742	1.4152	1.04587	-0.453944	-0.042414	0.121077	0.0648729	0.176991	0.157542	-0.0192812	-8.18544e-12	0.484103	-0.201938	-0.104292	0.946749	0.106366	0.00858159	9.81799e-12	-0.256638	0.0280601	0.0803428	-0.226135	-0.257405	-0.269566	1.18952	1.47513	-6.14257e-12	2.91125e-12	-0.0907588	-0.106607	-0.159602	0.738928	1.48159	-1.22586e-12	2.27658e-12
3.48	0.0140616	-0.061754	-0.0420918	1.42049	1.04573	-0.454047	-0.0518376	0.120435	0.0682462	0.16997	0.157631	-0.0185834	2.36371e-11	0.48731	-0.200157	-0.108371	0.921587	0.10654	0.00714502	2.36757e-11	-0.258312	0.0275613	0.0820423	-0.221819	-0.261524	-0.267503	1.19705	1.47446	-4.6078e-12	-4.52162e-12	-0.0941666	-0.106276	-0.163868	0.737618	1.48076	4.09113e-13	-3.19275e-12
3.485	0.0141226	-0.0617308	-0.0423987	1.4258	1.04554	-0.454184	-0.0612704	0.119862	0.0714789	0.16292	0.157662	-0.0178251	2.36371e-11	0.489854	-0.198211	-0.112202	0.895175	0.106073	0.00564571	2.36757e-11	-0.259961	0.0272876	0.083532	-0.217289	-0.265718	-0.265296	1.20434	1.47382	-4.6078e-12	-4.52162e-12	-0.0975838	-0.105913	-0.167912	0.736237	1.47993	4.09113e-13	-3.19275e-12
3.49	0.014153	-0.0618328	-0.0426093	1.43112	1.04531	-0.454355	-0.0706971	0.119361	0.0745723	0.155855	0.157636	-0.016995	2.36371e-11	0.491745	-0.196097	-0.115744	0.867541	0.104958	0.0040773	2.36757e-11	-0.261575	0.0272357	0.0848325	-0.212557	-0.269981	-0.262948	1.21139	1.47321	-4.6078e-12	-4.52162e-12	-0.101004	-0.105516	-0.171711	0.734784	1.47913	4.09113e-13	-3.19275e-12
3.495	0.0141494	-0.062058	-0.0427397	1.43645	1.04502	-0.454558	-0.0801056	0.118931	0.0775304	0.148796	0.157562	-0.0160823	2.36371e-11	0.492995	-0.19381	-0.118951	0.838728	0.103201	0.00243509	2.36757e-11	-0.263148	0.0273986	0.0859656	-0.207631	-0.27431	-0.260463	1.21819	1.47263	-4.6078e-12	-4.52162e-12	-0.104419	-0.105083	-0.175245	0.73326	1.47837	4.09113e-13	-3.19275e-12
3.5	0.0141112	-0.0624022	-0.0428081	1.4418	1.04469	-0.454793	-0.089485	0.118568	0.0803594	0.141762	0.157451	-0.0150769	2.36371e-11	0.493621	-0.191347	-0.121776	0.808803	0.100826	0.000716703	2.36757e-11	-0.26468	0.0277658	0.0869548	-0.202523	-0.278697	-0.257848	1.22474	1.47206	-4.6078e-12	-4.52162e-12	-0.107822	-0.104609	-0.178496	0.731668	1.47764	4.09113e-13	-3.19275e-12
3.505	0.0140384	-0.0628594	-0.042834	1.44716	1.04431	-0.455057	-0.0988238	0.118266	0.0830668	0.134779	0.157316	-0.0139695	2.36371e-11	0.493646	-0.188709	-0.124172	0.777847	0.0978674	-0.00107747	2.36757e-11	-0.26617	0.0283245	0.0878244	-0.197242	-0.283136	-0.255108	1.23102	1.4715	-4.6078e-12	-4.52162e-12	-0.111202	-0.104093	-0.181453	0.73001	1.47695	4.09113e-13	-3.19275e-12
3.51	0.0139317	-0.0634218	-0.0428381	1.45254	1.04388	-0.455349	-0.10811	0.118017	0.0856601	0.127871	0.157179	-0.012751	2.36371e-11	0.493099	-0.185898	-0.126091	0.745962	0.094374	-0.00294445	2.36757e-11	-0.267617	0.0290593	0.0885991	-0.1918	-0.287621	-0.252256	1.23704	1.47094	-4.6078e-12	-4.52162e-12	-0.114551	-0.103532	-0.184104	0.728291	1.4763	4.09113e-13	-3.19275e-12
